<svg width="184" height="41" viewBox="0 0 184 41" fill="none" xmlns="http://www.w3.org/2000/svg">
<path d="M72.2324 17.1796C71.799 16.2863 71.3864 15.624 70.5627 15.1415C69.9339 14.7642 69.2201 14.5515 68.4873 14.5233C67.7546 14.4951 67.0265 14.6522 66.3706 14.9801C66.0836 15.1361 65.842 15.3638 65.6694 15.6411C65.4967 15.9183 65.3989 16.2356 65.3854 16.562C65.3818 16.9287 65.5218 17.2824 65.7757 17.5471C66.1418 17.9132 66.9205 18.2339 67.7687 18.4854L70.6528 19.311C72.0509 19.7217 72.9441 20.1797 73.6759 20.8888C74.1433 21.3217 74.5166 21.8462 74.7727 22.4296C75.0287 23.013 75.1619 23.6428 75.1641 24.2799C75.141 25.0239 74.9423 25.7518 74.5842 26.4043C74.2262 27.0569 73.7189 27.6155 73.1037 28.0345C71.8671 28.8604 70.358 29.0892 68.6623 29.0892C66.4855 29.0892 64.6767 28.4925 63.3254 26.8898C62.594 25.9809 62.0839 24.9145 61.8354 23.7747L64.6317 23.0183C64.756 23.7756 65.0617 24.4916 65.5227 25.1051C66.234 26.0452 67.5626 26.5032 68.7524 26.5032C69.6925 26.5032 70.8373 26.2498 71.479 25.771C71.7218 25.5871 71.917 25.3476 72.0483 25.0727C72.1795 24.7978 72.2429 24.4954 72.2332 24.1909C72.2377 23.947 72.1912 23.7047 72.0967 23.4798C72.0021 23.2549 71.8615 23.0522 71.684 22.8847C71.209 22.4806 70.6429 22.198 70.0344 22.061L66.9867 21.1678C65.8395 20.8966 64.7675 20.3721 63.8493 19.6327C63.4098 19.238 63.0599 18.7538 62.823 18.2127C62.586 17.6716 62.4677 17.086 62.4757 16.4953C62.5023 15.661 62.7607 14.8505 63.2221 14.1548C63.6835 13.4591 64.3295 12.9057 65.0878 12.5566C66.1607 12.0838 67.328 11.8642 68.4994 11.9148C69.6944 11.908 70.8732 12.1906 71.9352 12.7385C73.3691 13.5585 74.4586 14.8686 75.0034 16.428L72.2317 17.1821" fill="white" fill-opacity="0.5"/>
<path d="M88.9992 22.768V28.7466H86.2052V22.8825C86.2052 21.4416 86.0222 20.0658 85.2201 19.334C84.7113 18.8982 84.0701 18.6473 83.4007 18.622C82.7312 18.5968 82.0729 18.7987 81.5328 19.1949C81.018 19.6358 80.6774 20.2459 80.5722 20.9155C80.4493 21.7188 80.4034 22.5319 80.4352 23.3438V28.7481H77.6636V16.3789H80.0897V17.777C80.1872 17.675 80.2793 17.568 80.3657 17.4564C80.7704 17.0216 81.2592 16.6735 81.8023 16.4332C82.3455 16.1929 82.9319 16.0653 83.5258 16.0582C84.9239 15.9682 86.367 16.1952 87.5114 17.2949C88.9546 18.6011 88.9996 20.7757 88.9996 22.7687" fill="white" fill-opacity="0.5"/>
<path d="M94.9797 19.562C94.6237 20.0309 94.3942 20.5835 94.3134 21.1666H100.429C100.407 20.558 100.209 19.969 99.8568 19.472C99.5409 19.1391 99.1592 18.8756 98.736 18.6984C98.3127 18.5211 97.8572 18.4339 97.3984 18.4424C96.9396 18.4509 96.4876 18.5548 96.0712 18.7476C95.6547 18.9403 95.283 19.2177 94.9797 19.562ZM94.9574 25.3569C95.2549 25.7297 95.6356 26.0276 96.069 26.2267C96.5023 26.4258 96.9764 26.5206 97.453 26.5035C98.054 26.5262 98.6484 26.371 99.1614 26.0572C99.6745 25.7434 100.084 25.285 100.337 24.7397L103.064 25.5634C102.611 26.6221 101.854 27.5227 100.889 28.1509C99.8964 28.7613 98.755 29.0865 97.5899 29.091C95.7595 29.091 93.88 28.3819 92.7806 27.0285C91.7995 25.8013 91.2737 24.2723 91.2924 22.7013C91.2361 21.0327 91.7622 19.3965 92.7806 18.0735C93.3608 17.4102 94.0807 16.8835 94.8885 16.5312C95.6963 16.1789 96.5721 16.0097 97.453 16.0359C99.2619 16.0359 100.727 16.6308 101.85 17.9838C103.041 19.4024 103.36 21.2581 103.201 23.343H94.2691C94.3011 24.0664 94.5402 24.7653 94.9581 25.3565" fill="white" fill-opacity="0.5"/>
<path d="M113.028 22.7002C111.951 22.8832 110.692 23.111 109.615 23.3643C108.517 23.5931 107.577 24.1184 107.577 25.0813C107.577 26.0664 108.425 26.7759 109.57 26.7759C110.169 26.7908 110.762 26.6512 111.291 26.3705C111.821 26.0899 112.269 25.6776 112.593 25.1735C113.028 24.4395 113.028 23.5689 113.028 22.7002ZM113.349 28.7462V27.1193C112.135 28.6071 110.876 29.0896 108.928 29.0896C106.454 29.0896 104.852 27.5996 104.852 25.2877C104.852 23.6853 105.469 22.4937 107.027 21.7597C108.584 21.0506 111.127 20.7969 113.006 20.523C112.844 19.3559 111.951 18.6446 110.418 18.6446C109.825 18.6303 109.234 18.7367 108.683 18.9574C108.132 19.178 107.631 19.5083 107.211 19.9281L105.584 18.0948C106.236 17.4152 107.023 16.8806 107.895 16.5256C108.767 16.1706 109.704 16.0032 110.645 16.0344C111.937 16.0492 113.183 16.5107 114.173 17.3406C115.365 18.3485 115.753 19.7689 115.753 21.3017V28.7458H113.349" fill="white" fill-opacity="0.5"/>
<path d="M121.549 28.7466H118.734L118.756 12.2556H121.549V21.1429H122.992L126.244 16.3782H129.336L125.236 22.4242L129.725 28.7462H126.565L122.992 23.7308H121.549V28.7462" fill="white" fill-opacity="0.5"/>
<path d="M145.644 23.8677C145.275 25.2585 144.493 26.5045 143.4 27.4407C142.002 28.6547 140.285 29.0903 138.362 29.0903C135.956 29.0903 133.873 28.1502 132.522 26.4106C131.251 24.7074 130.589 22.6261 130.644 20.5015C130.644 18.2573 131.146 16.1948 132.498 14.5708C133.941 12.7843 136.003 11.9137 138.362 11.9137C140.332 11.9137 142.027 12.3962 143.377 13.5856C144.588 14.6158 145.424 16.0169 145.757 17.5713L142.985 17.9597C142.809 17.3522 142.53 16.7792 142.161 16.2651C141.74 15.7075 141.192 15.2585 140.562 14.9556C139.933 14.6527 139.24 14.5046 138.541 14.5236C137.815 14.4882 137.09 14.6279 136.429 14.931C135.768 15.2341 135.189 15.6916 134.742 16.2651C133.824 17.4098 133.528 18.9672 133.55 20.5022C133.572 22.0149 133.802 23.5477 134.742 24.7394C135.588 25.9065 137.031 26.4563 138.541 26.4808C139.241 26.5103 139.938 26.3668 140.569 26.0631C141.201 25.7593 141.747 25.3047 142.161 24.7394C142.501 24.2725 142.764 23.7543 142.94 23.2043L145.642 23.8688" fill="white" fill-opacity="0.5"/>
<path d="M156.021 19.7451C155.727 19.3764 155.349 19.0826 154.919 18.8876C154.49 18.6926 154.02 18.6019 153.548 18.623C153.076 18.5991 152.606 18.6885 152.175 18.8837C151.745 19.0789 151.368 19.3743 151.075 19.7451C150.478 20.5014 150.319 21.5316 150.319 22.5618C150.319 23.5697 150.478 24.6017 151.075 25.3558C151.366 25.7299 151.743 26.0292 152.173 26.2286C152.603 26.428 153.074 26.5219 153.548 26.5024C154.022 26.519 154.492 26.4239 154.922 26.2247C155.352 26.0255 155.728 25.7278 156.021 25.3558C156.531 24.5088 156.8 23.539 156.8 22.5505C156.8 21.562 156.531 20.5921 156.021 19.7451ZM148.876 27.0277C147.863 25.7641 147.335 24.1801 147.388 22.5615C147.339 20.9366 147.866 19.3467 148.876 18.0728C149.472 17.43 150.195 16.9173 150.999 16.5667C151.803 16.2161 152.67 16.0351 153.547 16.0351C154.424 16.0351 155.292 16.2161 156.096 16.5667C156.899 16.9173 157.622 17.43 158.219 18.0728C159.236 19.3429 159.764 20.9353 159.709 22.5615C159.765 24.1809 159.236 25.7665 158.219 27.0277C157.626 27.6775 156.905 28.1965 156.101 28.5516C155.296 28.9067 154.427 29.0901 153.547 29.0901C152.668 29.0901 151.798 28.9067 150.994 28.5516C150.19 28.1965 149.468 27.6775 148.876 27.0277Z" fill="white" fill-opacity="0.5"/>
<path d="M170.223 16.3782V18.9438C169.515 18.6761 168.756 18.5665 168.001 18.6227C167.223 18.645 166.48 18.9551 165.916 19.4933C165.207 20.2255 165.001 21.1879 165.001 22.3345V28.7466H162.229V16.3782H164.68V18.0952C164.987 17.5718 165.41 17.1257 165.917 16.7912C166.617 16.3275 167.436 16.0734 168.275 16.059C168.941 16.0204 169.606 16.13 170.223 16.38" fill="white" fill-opacity="0.5"/>
<path d="M180.69 22.5615C180.69 21.3944 180.414 20.2496 179.797 19.4933C179.505 19.1657 179.144 18.9072 178.74 18.7368C178.336 18.5664 177.899 18.4883 177.461 18.5081C176.386 18.5081 175.49 18.8515 174.918 19.6997C174.393 20.5588 174.138 21.5558 174.186 22.5615C174.186 23.6597 174.369 24.7159 174.873 25.425C175.157 25.8152 175.534 26.1285 175.97 26.3365C176.405 26.5446 176.886 26.6408 177.368 26.6167C177.822 26.638 178.275 26.5587 178.695 26.3845C179.115 26.2102 179.491 25.9454 179.796 25.6088C180.413 24.8979 180.69 23.7308 180.69 22.5615ZM183.141 12.2556V28.7466H180.713V27.7838C179.669 28.6733 178.329 29.1393 176.958 29.09C176.143 29.0966 175.337 28.9234 174.597 28.5829C173.856 28.2423 173.2 27.7427 172.675 27.1197C171.694 25.8075 171.193 24.1985 171.256 22.5615C171.213 20.9278 171.712 19.3258 172.675 18.0055C173.21 17.3708 173.881 16.8643 174.638 16.5233C175.395 16.1823 176.219 16.0155 177.049 16.0352C178.235 16.0362 179.392 16.3953 180.37 17.0654V12.2556H183.142" fill="white" fill-opacity="0.5"/>
<path d="M45.2355 17.9524C46.4225 17.6258 47.5913 17.2362 48.7368 16.7852C46.9931 8.57236 39.5736 2.06656 30.0999 0.400482C32.0787 2.97352 33.6904 5.80903 34.8887 8.82569C40.0619 9.9031 44.1091 13.4593 45.2355 17.952" fill="white" fill-opacity="0.5"/>
<path d="M18.4147 24.4172C15.1507 24.0698 12.3461 23.6385 10.3289 23.2889C9.83613 26.0156 8.51162 27.9716 6.95024 27.9716C6.6053 27.9665 6.26746 27.8728 5.96912 27.6996V27.7058L2.24707 25.6905C4.91954 34.5001 14.2289 41 25.3031 41C25.5261 41 25.7468 40.9898 25.9676 40.9836C27.5184 38.2634 28.7567 35.3766 29.6589 32.3782C24.4121 31.7485 20.1013 28.6111 18.4147 24.4168" fill="white" fill-opacity="0.5"/>
<path d="M6.06408 14.1381C6.33771 13.9955 6.64078 13.9185 6.94929 13.9133C8.45356 13.9133 9.73744 15.7262 10.2708 18.2976C12.1492 18.6022 14.7207 18.9701 17.719 19.2725C18.3464 13.9192 23.0621 9.60769 29.1366 8.67635C27.9576 5.59387 26.3835 2.67741 24.4539 0C13.3182 0.33717 4.12636 7.23981 1.95581 16.3518L6.06408 14.1278V14.1359" fill="white" fill-opacity="0.5"/>
<path d="M45.1744 23.2545C43.9909 27.5777 40.0931 31.0013 35.1121 32.1139C34.1579 34.9775 32.9012 37.7314 31.3633 40.3286C41.0647 38.1394 48.3448 30.822 49.0663 21.9468C47.7966 22.4609 46.4969 22.8977 45.1744 23.2549" fill="white" fill-opacity="0.5"/>
<path d="M26.7126 16.8834C26.2081 16.8988 25.7154 17.0402 25.2795 17.2948C24.8436 17.5494 24.4783 17.9089 24.217 18.3408C23.7481 19.0657 23.5022 19.9121 23.5097 20.7753C23.5097 22.9235 24.9444 24.6672 26.7126 24.6672C28.4808 24.6672 29.9155 22.9239 29.9155 20.7753C29.9199 19.982 29.7132 19.2018 29.3166 18.5147C29.0637 18.0384 28.69 17.637 28.2329 17.3507C27.7759 17.0644 27.2516 16.9034 26.7126 16.8837" fill="white" fill-opacity="0.5"/>
<path d="M40.021 17.1591C39.552 17.1735 39.0941 17.305 38.689 17.5416C38.2838 17.7782 37.9442 18.1123 37.7011 18.5136C37.2668 19.1879 37.0388 19.9744 37.045 20.7764C37.045 22.7734 38.3776 24.3923 40.021 24.3923C41.6644 24.3923 42.997 22.7734 42.997 20.7764C43.0019 20.0394 42.8092 19.3146 42.439 18.6772C42.205 18.2345 41.8585 17.8611 41.4343 17.5949C41.0102 17.3286 40.5233 17.1788 40.0228 17.1605" fill="white" fill-opacity="0.5"/>
<path d="M3.60966 23.4895C4.08115 21.8251 4.08115 20.0624 3.60966 18.3979C3.25418 17.2308 2.65782 16.4642 1.98055 16.4642C1.96408 16.4642 1.94797 16.4705 1.9315 16.4705C1.81273 16.4762 1.69617 16.5047 1.5881 16.5543C0.682759 16.9651 0 18.7743 0 20.9426C0 23.0744 0.658966 24.8547 1.54125 25.3086C1.6768 25.3801 1.82732 25.4186 1.98055 25.421C2.04211 25.4205 2.10345 25.4136 2.1636 25.4005C2.76435 25.2779 3.28567 24.5501 3.61076 23.4895" fill="white" fill-opacity="0.5"/>
</svg>
