<svg width="50" height="50" viewBox="0 0 50 50" fill="none" xmlns="http://www.w3.org/2000/svg">
<g filter="url(#filter0_b)">
<circle cx="25" cy="25" r="25" fill="white" fill-opacity="0.3"/>
</g>
<path d="M33.8353 18.2575C34.7453 19.3495 35.1993 20.6235 35.1993 22.0795C35.1993 27.3565 32.1973 28.9035 29.3763 29.3585C29.7403 29.9955 29.8313 30.7235 29.8313 31.4515V35.1815C29.8313 35.6365 29.5583 35.9095 29.1943 35.9095C29.0983 35.9109 29.0031 35.893 28.9141 35.8569C28.8252 35.8208 28.7444 35.7672 28.6765 35.6993C28.6087 35.6314 28.5551 35.5506 28.519 35.4617C28.4829 35.3728 28.465 35.2775 28.4663 35.1815V31.4515C28.5142 31.0702 28.4735 30.6829 28.3472 30.3199C28.2209 29.9568 28.0126 29.6278 27.7383 29.3585L28.1933 28.1755C31.0143 27.8115 33.9263 26.9015 33.9263 21.9885C33.9263 20.8055 33.4713 19.7135 32.6523 18.8035L32.4703 18.0765C32.8164 17.2046 32.8482 16.2394 32.5603 15.3465C32.1063 15.4365 31.1963 15.6195 29.6503 16.7115L29.1033 16.8015C26.9541 16.2558 24.7025 16.2558 22.5533 16.8015L22.0063 16.7115C20.3703 15.7105 19.4603 15.4375 19.0043 15.4375C18.7313 16.3475 18.7313 17.3475 19.0943 18.1675L18.9133 18.8945C18.0033 19.8045 17.5483 20.9875 17.5483 22.0795C17.5483 26.9015 20.2783 27.9025 23.2803 28.2665L23.6443 29.4495C23.0983 29.9955 22.8253 30.7235 22.9163 31.4515V35.2725C22.9177 35.3685 22.8997 35.4638 22.8636 35.5527C22.8275 35.6416 22.774 35.7224 22.7061 35.7903C22.6382 35.8582 22.5574 35.9118 22.4685 35.9479C22.3796 35.984 22.2843 36.0019 22.1883 36.0005C22.0923 36.0019 21.9971 35.984 21.9081 35.9479C21.8192 35.9118 21.7384 35.8582 21.6705 35.7903C21.6027 35.7224 21.5491 35.6416 21.513 35.5527C21.4769 35.4638 21.459 35.3685 21.4603 35.2725V33.1805C18.4583 33.8175 17.2753 32.2705 16.3653 31.0885C15.9103 30.5425 15.5463 30.0875 15.0913 29.9965C15.0013 29.9055 14.7273 29.5415 14.8183 29.1775C14.9093 28.8135 15.2733 28.5405 15.6383 28.7225C16.5483 28.9045 17.0933 29.6325 17.6383 30.2695C18.4583 31.3615 19.2773 32.3615 21.7333 31.8165V31.4525C21.6433 30.7245 21.8243 29.9965 22.1883 29.3595C19.4583 28.8135 16.2743 27.2665 16.2743 22.0805C16.2743 20.6245 16.7293 19.3505 17.6393 18.2585C17.3663 16.9855 17.4573 15.6205 17.9123 14.5285L18.3673 14.1645C18.5493 14.0735 19.8233 13.8005 22.4603 15.4375C24.6407 14.8916 26.922 14.8916 29.1023 15.4375C31.6513 13.7085 33.0163 13.9805 33.1983 14.0725L33.6533 14.4365C34.1083 15.7105 34.1993 16.9845 33.8353 18.2575Z" fill="white"/>
<defs>
<filter id="filter0_b" x="-40" y="-40" width="130" height="130" filterUnits="userSpaceOnUse" color-interpolation-filters="sRGB">
<feFlood flood-opacity="0" result="BackgroundImageFix"/>
<feGaussianBlur in="BackgroundImage" stdDeviation="20"/>
<feComposite in2="SourceAlpha" operator="in" result="effect1_backgroundBlur"/>
<feBlend mode="normal" in="SourceGraphic" in2="effect1_backgroundBlur" result="shape"/>
</filter>
</defs>
</svg>
